# xmcd CD database file
#
# Track frame offsets:
#	150
#	25542
#	44827
#	67142
#	90800
#	118537
#	143672
#	169817
#	195992
#	210082
#	219347
#	238282
#
# Disc length: 3613 seconds
#
# Revision: 10
# Processed by: cddbd v1.5.2PL0 Copyright (c) Steve Scherf et al.
# Submitted via: CDex 1.51
#
DISCID=9e0e1b0c
DTITLE=Tord Gustavsen Trio-Quartett - The Ground
DYEAR=2004
DGENRE=Jazz
TTITLE0=Tears Transforming
TTITLE1=Being There
TTITLE2=Twins
TTITLE3=Curtains Aside
TTITLE4=Colours Of Mercy
TTITLE5=Sentiment
TTITLE6=Kneeling Down
TTITLE7=Reach Out And Touch It
TTITLE8=Edges Of Happiness
TTITLE9=Interlude
TTITLE10=Token Of Tango
TTITLE11=The Ground
EXTD=YEAR: 2004
EXTT0=
EXTT1=
EXTT2=
EXTT3=
EXTT4=
EXTT5=
EXTT6=
EXTT7=
EXTT8=
EXTT9=
EXTT10=
EXTT11=
PLAYORDER=
